<?xml version="1.0" standalone="no"?>
<!DOCTYPE svg PUBLIC "-//W3C//DTD SVG 20010904//EN"
 "http://www.w3.org/TR/2001/REC-SVG-20010904/DTD/svg10.dtd">
<svg version="1.0" xmlns="http://www.w3.org/2000/svg"
 width="700.000000pt" height="700.000000pt" viewBox="0 0 700.000000 700.000000"
 preserveAspectRatio="xMidYMid meet">
<metadata>
Created by potrace 1.14, written by Peter Selinger 2001-2017
</metadata>
<g transform="translate(0.000000,700.000000) scale(0.100000,-0.100000)"
fill="#000000" stroke="none">
<path d="M5935 4397 c-417 -37 -677 -272 -676 -607 1 -217 93 -361 296 -463
96 -48 195 -80 412 -133 308 -75 406 -117 468 -198 50 -66 43 -184 -16 -251
-40 -45 -79 -68 -164 -97 -62 -20 -88 -23 -235 -22 -183 0 -270 16 -426 79
-81 32 -218 107 -229 125 -13 21 -24 6 -70 -97 -26 -60 -56 -125 -65 -146
l-18 -37 31 -24 c117 -89 299 -160 512 -200 188 -36 459 -25 630 25 248 73
410 244 451 474 11 61 10 103 -2 187 -21 137 -105 257 -231 331 -110 64 -164
82 -608 197 -169 44 -243 74 -298 124 -86 79 -82 234 10 317 79 71 169 100
333 104 184 5 359 -34 523 -116 70 -36 78 -38 84 -22 4 10 31 76 60 148 29 71
51 130 50 131 -1 1 -36 20 -78 42 -196 104 -478 153 -744 129z"/>
<path d="M341 4372 c-7 -2 -11 -57 -11 -161 l0 -157 493 0 c344 -1 510 -5 552
-13 369 -75 578 -325 576 -690 -1 -109 -7 -148 -38 -241 -81 -244 -280 -402
-563 -446 -25 -4 -179 -8 -342 -9 l-298 -1 0 553 0 553 -27 1 c-37 1 -325 1
-340 0 -10 -1 -13 -151 -13 -715 l0 -714 523 3 c348 1 545 6 592 14 253 43
459 143 610 295 216 217 305 491 273 840 -33 352 -249 644 -582 788 -91 40
-199 73 -272 83 -23 3 -59 8 -80 11 -42 7 -1035 12 -1053 6z"/>
<path d="M2200 4370 c-4 -3 23 -99 62 -215 252 -763 481 -1451 484 -1454 2 -2
6 2 8 10 3 8 45 140 95 293 l90 279 -60 186 c-33 102 -94 290 -136 416 -41
127 -88 271 -104 320 -16 50 -36 108 -44 130 l-15 40 -186 0 c-102 0 -189 -2
-194 -5z"/>
<path d="M3621 4370 c-5 -3 -16 -30 -25 -60 -10 -30 -20 -62 -23 -70 -16 -45
-246 -722 -318 -935 -87 -260 -315 -958 -315 -967 0 -6 299 -8 321 -2 9 3 21
21 27 42 6 20 46 143 90 272 44 129 150 440 235 690 85 250 159 465 164 477 6
18 46 -91 191 -527 101 -303 185 -550 187 -550 2 0 35 100 75 223 39 122 79
242 87 267 l16 45 -172 520 c-95 286 -178 533 -185 550 l-13 29 -167 1 c-92 0
-171 -2 -175 -5z"/>
<path d="M5010 4370 c-7 -5 -300 -873 -424 -1255 -30 -93 -91 -282 -136 -420
-45 -137 -90 -275 -99 -306 l-18 -56 179 1 179 1 234 705 c129 388 255 766
280 840 25 74 47 142 49 150 3 12 50 157 70 215 2 6 4 12 4 15 0 3 6 19 12 35
7 17 16 41 20 55 l7 25 -174 0 c-96 0 -178 -2 -183 -5z"/>
</g>
</svg>
